{"glyphs":{":":{"x_min":0,"x_max":252,"ha":252,"o":""},"$":{"x_min":0,"x_max":444,"ha":444,"o":"m 398 156 q 398 35 255 15 q 255 -71 259 -128 l 189 -128 q 192 -71 192 10 q 119 10 43 26 l 59 120 q 120 99 181 99 q 235 99 258 109 q 280 119 280 144 q 280 178 203 210 q 131 240 101 265 q 54 304 54 360 q 54 414 89 452 q 125 491 193 500 q 193 601 189 648 l 259 648 q 255 601 255 504 q 336 503 378 489 l 362 394 q 306 416 242 416 q 171 416 171 374 q 171 354 189 340 q 205 329 249 312 q 320 284 352 257 q 398 217 398 156 z m 223 -20 z m 230 526 z"},"?":{"x_min":0,"x_max":353,"ha":353,"o":"m 333 504 q 333 399 196 336 l 186 262 l 121 262 l 103 366 q 208 397 208 468 q 208 554 26 560 l 38 652 q 189 652 261 620 q 333 588 333 504 z m 230 85 q 230 49 206 22 q 181 -5 138 -5 q 101 -5 81 19 q 60 42 60 75 q 60 110 85 136 q 109 163 153 163 q 190 163 210 140 q 230 117 230 85 z"},"<":{"x_min":0,"x_max":504,"ha":504,"o":"m 452 99 l 412 7 l 52 211 l 52 279 l 412 483 l 452 392 l 167 250 l 167 239 z"},"'":{"x_min":0,"x_max":252,"ha":252,"o":"m 200 616 q 200 511 129 343 l 88 343 q 53 524 53 616 q 53 649 74 671 q 95 694 131 694 q 200 694 200 616 z"},"=":{"x_min":0,"x_max":504,"ha":504,"o":"m 452 302 l 52 302 l 52 390 l 452 390 z m 452 98 l 52 98 l 52 186 l 452 186 z"},"a":{"x_min":0,"x_max":491,"ha":491,"o":"m 452 0 l 336 -3 q 329 17 329 34 l 322 34 q 269 -12 177 -12 q 116 -12 76 22 q 36 56 36 112 q 36 186 98 233 q 161 281 318 284 q 319 292 319 300 q 319 353 294 370 q 269 387 201 387 q 127 387 57 367 l 67 457 q 134 480 255 480 q 343 480 391 443 q 439 406 439 313 q 439 292 438 238 q 436 184 436 166 q 436 65 452 0 z m 321 102 q 318 168 318 216 q 152 216 152 131 q 152 73 225 73 q 283 73 321 102 z"},"L":{"x_min":0,"x_max":485,"ha":485,"o":"m 480 106 l 476 0 l 70 0 q 76 132 76 333 q 76 516 70 636 l 208 636 q 202 525 202 333 q 202 186 195 99 q 330 99 480 106 z"},"3":{"x_min":0,"x_max":471,"ha":471,"o":"m 427 72 q 427 -27 333 -100 q 225 -184 33 -195 l 20 -113 q 148 -105 223 -61 q 300 -16 300 55 q 300 171 83 171 l 93 250 q 173 250 224 277 q 275 305 275 348 q 275 426 153 426 q 99 426 56 417 l 65 507 q 99 520 205 520 q 297 520 347 482 q 393 446 393 386 q 393 338 358 298 q 326 261 280 247 l 280 239 q 345 229 386 183 q 427 138 427 72 z"},";":{"x_min":0,"x_max":252,"ha":252,"o":""},"J":{"x_min":0,"x_max":399,"ha":399,"o":"m 340 636 q 334 490 334 276 q 334 114 267 45 q 210 -13 91 -13 q 48 -13 5 -3 l 14 102 q 47 87 80 87 q 144 87 172 115 q 214 155 214 267 q 214 490 207 636 z"},"V":{"x_min":0,"x_max":574,"ha":574,"o":"m 568 636 q 568 596 457 317 q 345 39 345 0 l 211 0 q 211 38 108 319 q 5 600 5 636 l 160 636 q 160 600 226 383 q 291 166 291 136 l 299 136 q 299 165 365 374 q 431 583 431 636 z"},"\"":{"x_min":0,"x_max":457,"ha":457,"o":""},"7":{"x_min":0,"x_max":465,"ha":465,"o":"m 431 515 q 431 422 367 276 q 308 155 248 33 q 184 -100 184 -161 l 54 -151 q 54 -92 187 135 q 319 362 319 417 q 218 417 24 407 l 29 515 z"},"S":{"x_min":0,"x_max":523,"ha":523,"o":"m 485 173 q 485 -18 211 -18 q 118 -18 38 5 l 62 114 q 141 86 211 86 q 289 86 323 102 q 357 117 357 152 q 357 189 325 215 q 297 237 212 273 q 135 307 98 346 q 50 395 50 467 q 50 551 113 599 q 175 646 292 646 q 387 646 452 630 l 434 521 q 368 545 292 545 q 176 545 176 484 q 176 451 203 431 q 227 413 305 381 q 389 348 430 307 q 485 253 485 173 z"},"}":{"x_min":0,"x_max":353,"ha":353,"o":"m 338 215 q 223 187 223 141 q 223 119 245 37 q 267 -45 267 -81 q 267 -162 160 -209 q 116 -229 54 -239 l 24 -162 q 164 -133 164 -35 q 164 -12 144 55 q 125 122 125 141 q 125 195 170 225 q 203 247 237 247 l 237 253 q 204 253 164 281 q 125 309 125 364 q 125 382 144 445 q 164 507 164 532 q 164 640 26 666 l 51 743 q 114 734 159 715 q 267 669 267 580 q 267 546 244 466 q 221 385 221 362 q 221 329 259 310 q 297 292 338 288 z"},"Z":{"x_min":0,"x_max":515,"ha":515,"o":"m 477 110 l 474 0 l 38 0 l 45 100 q 98 170 203 333 q 316 510 316 532 l 316 540 q 199 540 46 529 l 49 636 l 467 636 l 460 535 q 406 460 310 305 q 200 129 200 106 l 200 99 q 303 99 477 110 z"},"x":{"x_min":0,"x_max":515,"ha":515,"o":"m 500 0 l 347 0 q 347 13 307 88 q 269 159 249 187 l 242 187 q 226 165 189 89 q 152 14 152 0 l 17 0 q 17 12 87 114 q 158 217 186 245 l 186 252 q 162 278 101 362 q 35 453 35 464 l 187 464 q 187 451 220 388 q 251 327 269 304 l 274 304 q 290 323 320 387 q 350 451 350 464 l 480 464 q 480 455 415 366 q 350 278 330 259 l 330 251 q 357 221 427 119 q 500 14 500 0 z"},")":{"x_min":0,"x_max":353,"ha":353,"o":"m 318 275 q 318 19 193 -135 q 141 -199 68 -237 l 43 -170 q 93 -134 128 -77 q 212 59 212 275 q 212 461 125 587 q 89 640 39 676 l 74 743 q 145 710 196 652 q 318 514 318 275 z"},"&":{"x_min":0,"x_max":682,"ha":682,"o":"m 670 0 l 526 0 q 526 14 503 53 q 481 92 464 110 l 457 110 q 364 -14 227 -14 q 136 -14 83 32 q 30 78 30 156 q 30 219 66 273 q 102 327 169 356 l 169 363 q 83 429 83 500 q 83 570 139 608 q 195 646 269 646 q 339 646 390 611 q 441 576 441 511 q 441 422 346 378 l 346 371 q 390 347 470 268 l 477 268 q 497 301 497 372 l 620 372 q 620 352 589 296 q 558 241 532 215 l 532 208 q 571 172 621 97 q 670 22 670 0 z m 418 165 l 418 172 q 389 206 341 252 q 292 299 237 325 q 154 287 154 189 q 154 139 184 108 q 215 76 268 76 q 344 76 418 165 z m 341 492 q 341 527 321 547 q 301 567 269 567 q 238 567 217 550 q 196 532 196 504 q 196 446 281 407 q 341 435 341 492 z"},"_":{"x_min":0,"x_max":504,"ha":504,"o":"m 504 -250 l 0 -250 l 0 -162 l 504 -162 z"},"v":{"x_min":0,"x_max":489,"ha":489,"o":"m 477 464 q 477 436 389 232 q 302 28 302 0 l 168 0 q 168 31 91 238 q 13 444 13 464 l 156 464 q 156 442 204 294 q 252 146 252 121 l 258 121 q 258 144 304 285 q 350 425 350 464 z"},"O":{"x_min":0,"x_max":697,"ha":697,"o":"m 659 330 q 659 180 567 81 q 476 -18 340 -18 q 211 -18 125 73 q 38 164 38 303 q 38 453 129 552 q 221 650 356 650 q 485 650 572 560 q 659 470 659 330 z m 524 315 q 524 417 472 481 q 420 544 343 544 q 272 544 222 480 q 172 417 172 319 q 172 217 225 154 q 277 90 354 90 q 425 90 475 154 q 524 218 524 315 z"},"(":{"x_min":0,"x_max":353,"ha":353,"o":"m 318 -170 l 282 -237 q 211 -205 161 -147 q 39 -9 39 230 q 39 487 163 641 q 215 705 288 743 l 312 676 q 264 640 229 583 q 145 446 145 230 q 145 44 231 -82 q 267 -134 318 -170 z"},"C":{"x_min":0,"x_max":552,"ha":552,"o":"m 525 116 l 517 3 q 448 -13 380 -13 q 213 -13 125 79 q 38 172 38 304 q 38 441 131 543 q 224 645 386 645 q 445 645 499 631 l 481 518 q 424 537 371 537 q 272 537 224 474 q 175 411 175 321 q 175 229 233 162 q 290 95 394 95 q 454 95 525 116 z"},"W":{"x_min":0,"x_max":917,"ha":917,"o":"m 911 636 q 911 590 813 313 q 716 37 716 0 l 587 0 q 587 39 528 217 q 465 409 457 470 l 449 470 q 441 408 383 215 q 330 35 330 0 l 198 0 q 198 46 102 327 q 5 607 5 636 l 160 636 q 160 605 216 391 q 271 176 271 136 l 279 136 q 279 176 339 386 q 398 596 398 636 l 538 636 q 538 599 597 382 q 657 164 657 136 l 665 136 q 665 171 719 375 q 772 579 772 636 z"},"A":{"x_min":0,"x_max":630,"ha":630,"o":"m 625 0 l 468 0 q 468 32 424 183 l 198 183 q 152 35 152 0 l 5 0 q 5 19 119 312 q 233 606 233 636 l 418 636 q 418 608 521 317 q 625 26 625 0 z m 399 276 q 315 528 315 548 l 308 548 q 308 529 221 276 z"},"f":{"x_min":0,"x_max":362,"ha":362,"o":"m 360 693 l 342 606 q 314 613 285 613 q 250 613 237 581 q 224 548 224 456 q 267 456 343 459 l 339 362 q 263 365 224 365 q 224 181 231 0 l 102 0 q 109 179 109 365 q 81 365 24 362 l 28 459 q 80 456 109 456 q 109 701 274 701 q 324 701 360 693 z m 169 464 z"},"Q":{"x_min":0,"x_max":697,"ha":697,"o":"m 678 -211 l 535 -217 q 508 -91 475 -54 q 442 -18 340 -18 q 211 -18 125 73 q 38 164 38 303 q 38 453 129 552 q 221 650 356 650 q 485 650 572 560 q 659 470 659 330 q 659 229 615 149 q 571 68 496 24 l 496 17 q 576 7 614 -39 q 653 -85 678 -211 z m 524 315 q 524 417 472 481 q 419 544 343 544 q 272 544 222 480 q 172 417 172 319 q 172 217 225 154 q 278 90 354 90 q 425 90 475 154 q 524 218 524 315 z"},"w":{"x_min":0,"x_max":788,"ha":788,"o":"m 772 464 q 772 436 691 235 q 609 35 609 0 l 496 0 q 496 22 456 138 q 406 283 392 335 l 384 335 q 372 285 324 141 q 285 26 285 0 l 171 0 q 171 30 94 238 q 16 445 16 464 l 157 464 q 157 444 199 296 q 242 148 242 121 l 250 121 q 250 154 298 296 q 347 437 347 464 l 462 464 q 462 445 510 295 q 557 146 557 121 l 564 121 q 564 148 607 287 q 650 426 650 464 z"},"-":{"x_min":0,"x_max":252,"ha":252,"o":"m 234 295 l 228 208 l 19 200 l 23 288 z"},"E":{"x_min":0,"x_max":527,"ha":527,"o":"m 490 107 l 486 0 l 70 0 q 77 147 77 333 q 77 510 70 636 l 467 636 l 461 529 q 315 537 196 537 q 201 469 201 376 q 303 376 419 382 l 419 280 q 305 285 201 285 q 201 186 205 99 q 338 99 490 107 z"},"s":{"x_min":0,"x_max":419,"ha":419,"o":"m 386 133 q 386 -13 169 -13 q 90 -13 31 4 l 48 100 q 109 78 169 78 q 228 78 251 88 q 273 98 273 121 q 273 156 191 188 q 120 217 87 244 q 42 282 42 337 q 42 402 90 442 q 139 481 231 481 q 317 481 367 466 l 350 370 q 295 391 231 391 q 153 391 153 351 q 153 331 169 318 q 186 306 237 287 q 308 261 340 233 q 386 194 386 133 z"},">":{"x_min":0,"x_max":504,"ha":504,"o":"m 452 211 l 93 7 l 52 99 l 337 240 l 337 251 l 52 392 l 93 483 l 452 279 z"},"l":{"x_min":0,"x_max":258,"ha":258,"o":"m 200 0 l 67 0 q 74 167 74 363 q 74 553 59 687 l 200 694 q 193 556 193 363 q 193 167 200 0 z"},"8":{"x_min":0,"x_max":536,"ha":536,"o":"m 492 182 q 492 97 428 43 q 364 -12 265 -12 q 167 -12 105 39 q 44 90 44 171 q 44 230 77 277 q 112 329 177 355 l 177 363 q 81 419 81 513 q 81 581 136 625 q 191 667 275 667 q 356 667 408 628 q 459 588 459 525 q 459 479 434 441 q 407 398 358 378 l 358 370 q 492 301 492 182 z m 370 173 q 370 268 248 322 q 209 308 185 270 q 160 231 160 188 q 160 136 190 106 q 221 75 268 75 q 312 75 341 102 q 370 129 370 173 z m 355 508 q 355 547 331 570 q 308 592 270 592 q 233 592 210 573 q 187 554 187 522 q 187 449 289 401 q 355 435 355 508 z"},"\\":{"x_min":0,"x_max":267,"ha":267,"o":"m 265 -147 l 172 -147 q 172 -65 87 306 q 3 677 3 710 l 95 710 q 95 618 180 251 q 265 -116 265 -147 z"},"e":{"x_min":0,"x_max":512,"ha":512,"o":"m 479 282 q 479 257 476 217 l 161 211 q 168 156 208 120 q 249 83 315 83 q 388 83 471 105 l 461 10 q 394 -14 294 -14 q 168 -14 101 57 q 34 127 34 227 q 34 331 97 407 q 161 484 274 484 q 378 484 428 428 q 479 372 479 282 z m 364 286 q 364 398 269 398 q 177 398 160 282 z"},"b":{"x_min":0,"x_max":555,"ha":555,"o":"m 521 252 q 521 146 460 66 q 400 -14 294 -14 q 216 -14 184 19 l 177 19 l 167 0 l 53 0 q 59 171 59 363 q 59 543 43 687 l 183 694 q 178 581 178 437 l 184 437 q 233 480 317 480 q 411 480 466 413 q 521 345 521 252 z m 391 239 q 391 300 360 345 q 329 390 275 390 q 208 390 176 350 q 176 183 184 99 q 214 75 263 75 q 328 75 360 123 q 391 171 391 239 z"},"%":{"x_min":0,"x_max":504,"ha":504,"o":"m 275 521 q 275 474 244 440 q 209 403 150 403 q 91 403 56 440 q 25 473 25 521 q 25 568 56 602 q 91 639 150 639 q 209 639 244 602 q 275 569 275 521 z m 482 113 q 482 65 451 32 q 416 -5 357 -5 q 298 -5 263 31 q 231 64 231 112 q 231 160 263 193 q 298 230 357 230 q 416 230 451 193 q 482 161 482 113 z m 469 631 q 469 587 286 322 q 103 56 103 0 l 30 5 q 30 52 213 319 q 396 585 396 636 z m 205 520 q 205 546 191 565 q 177 586 151 586 q 126 586 111 565 q 98 546 98 520 q 98 493 111 475 q 126 455 151 455 q 177 455 192 475 q 205 493 205 520 z m 412 111 q 412 138 398 157 q 384 178 358 178 q 333 178 318 157 q 305 138 305 111 q 305 84 318 66 q 333 46 358 46 q 384 46 399 66 q 412 84 412 111 z"},"m":{"x_min":0,"x_max":832,"ha":832,"o":"m 778 0 l 648 0 q 659 124 659 240 q 659 328 636 354 q 614 381 564 381 q 525 381 481 353 q 479 292 479 243 q 479 162 482 0 l 351 0 q 362 134 362 260 q 362 326 344 354 q 325 381 268 381 q 214 381 179 346 q 182 152 182 0 l 50 0 q 59 152 59 240 q 59 354 35 460 l 160 474 l 168 422 l 176 422 q 240 480 319 480 q 419 480 459 422 l 467 422 q 540 480 610 480 q 693 480 736 444 q 778 408 778 314 q 778 305 777 279 q 776 252 776 243 q 776 162 778 0 z"},"#":{"x_min":0,"x_max":504,"ha":504,"o":"m 487 447 l 487 359 l 384 359 q 378 344 372 327 q 359 294 348 265 l 487 265 l 487 177 l 315 177 q 260 28 253 0 l 180 0 q 187 18 249 177 l 153 177 q 98 28 91 0 l 18 0 q 25 18 87 177 l 17 177 l 17 265 l 121 265 q 128 284 137 306 q 148 334 158 359 l 17 359 l 17 447 l 191 447 q 248 602 251 639 l 324 639 q 320 619 255 447 l 353 447 q 410 603 413 639 l 485 639 q 481 620 417 447 z m 319 359 l 222 359 q 216 344 210 326 q 197 293 187 265 l 283 265 q 291 285 299 307 q 310 334 319 359 z"},",":{"x_min":0,"x_max":252,"ha":252,"o":"m 209 76 q 209 -51 53 -195 l 9 -158 q 76 -84 76 2 q 39 24 39 75 q 39 110 63 136 q 88 163 132 163 q 168 163 189 136 q 209 110 209 76 z m 117 -5 z"},"n":{"x_min":0,"x_max":550,"ha":550,"o":"m 496 0 l 366 0 q 376 124 376 250 q 376 327 354 354 q 331 381 285 381 q 229 381 179 343 q 182 153 182 0 l 50 0 q 59 153 59 240 q 59 357 35 460 l 160 474 l 168 422 l 176 422 q 243 480 330 480 q 405 480 450 445 q 496 409 496 314 q 496 300 494 276 q 493 252 493 228 q 493 162 496 0 z"},"h":{"x_min":0,"x_max":550,"ha":550,"o":"m 496 0 l 366 0 q 376 124 376 240 q 376 327 354 354 q 333 381 282 381 q 229 381 178 346 q 178 138 183 0 l 53 0 q 58 151 58 363 q 58 558 43 687 l 181 694 q 174 537 174 421 l 180 421 q 245 480 328 480 q 406 480 451 444 q 496 409 496 319 q 496 310 494 281 q 493 252 493 243 q 493 162 496 0 z"},"z":{"x_min":0,"x_max":435,"ha":435,"o":"m 407 98 l 405 0 l 36 0 l 42 93 q 67 115 157 229 q 254 351 254 368 l 254 376 q 138 376 40 368 l 42 464 l 397 464 l 390 370 q 359 336 280 233 q 188 113 188 96 l 188 88 q 298 88 407 98 z"},"B":{"x_min":0,"x_max":598,"ha":598,"o":"m 560 191 q 560 -3 242 -3 q 187 -3 70 0 q 77 147 77 333 q 77 510 70 636 l 149 636 q 172 636 225 637 q 278 639 308 639 q 524 639 524 498 q 524 390 413 354 l 413 347 q 472 338 516 301 q 560 264 560 191 z m 428 186 q 428 283 258 283 q 224 283 200 281 q 200 179 204 93 q 221 89 254 89 q 344 89 386 111 q 428 132 428 186 z m 393 459 q 393 547 283 547 q 233 547 194 540 q 199 490 199 370 q 218 369 238 369 q 393 369 393 459 z"},"K":{"x_min":0,"x_max":589,"ha":589,"o":"m 584 0 l 424 0 q 424 22 342 155 q 254 296 217 296 l 203 296 q 203 185 208 0 l 70 0 q 77 147 77 333 q 77 510 70 636 l 208 636 q 203 500 203 382 l 213 382 q 235 382 322 502 q 406 619 406 636 l 552 636 q 552 620 462 514 q 370 405 328 375 l 328 368 q 377 342 484 175 q 584 20 584 0 z"},"R":{"x_min":0,"x_max":596,"ha":596,"o":"m 585 0 l 440 0 q 384 173 354 213 q 323 254 256 254 q 228 254 202 253 q 202 128 206 0 l 70 0 q 77 147 77 333 q 77 510 70 636 l 155 636 q 169 636 216 637 q 263 639 302 639 q 526 639 526 485 q 526 364 398 316 l 398 309 q 448 295 485 232 q 522 168 585 0 z m 402 449 q 402 546 277 546 q 231 546 196 540 q 201 464 201 342 q 228 341 247 341 q 402 341 402 449 z"},"T":{"x_min":0,"x_max":526,"ha":526,"o":"m 515 636 l 512 531 q 414 538 328 538 q 327 446 327 333 q 327 157 332 0 l 195 0 q 202 155 202 333 q 202 444 200 538 q 131 538 11 530 l 15 636 z"},"P":{"x_min":0,"x_max":556,"ha":556,"o":"m 534 469 q 534 353 448 297 q 361 241 235 241 q 212 241 202 242 q 202 150 208 0 l 70 0 q 77 141 77 333 q 77 508 70 636 l 155 636 q 173 636 225 637 q 276 639 313 639 q 406 639 470 597 q 534 555 534 469 z m 408 442 q 408 547 270 547 q 235 547 196 540 q 202 447 202 331 q 214 330 230 330 q 408 330 408 442 z"},"|":{"x_min":0,"x_max":252,"ha":252,"o":"m 178 -252 l 74 -252 q 81 24 81 230 q 81 433 74 757 l 178 757 q 172 442 172 230 q 172 19 178 -252 z"},"t":{"x_min":0,"x_max":363,"ha":363,"o":"m 344 91 l 335 4 q 301 -10 250 -10 q 170 -10 130 33 q 90 76 90 198 q 90 272 91 365 q 66 365 24 362 l 27 458 q 65 456 97 456 q 98 481 101 592 l 217 606 q 209 509 209 456 q 250 456 332 459 l 328 362 q 254 365 208 365 q 207 300 207 229 q 207 142 224 113 q 242 83 286 83 q 313 83 344 91 z m 160 464 z"},"M":{"x_min":0,"x_max":864,"ha":864,"o":"m 804 0 l 662 0 q 662 83 652 280 q 642 477 641 526 l 634 526 q 629 497 608 417 q 587 338 529 184 q 471 30 471 0 l 363 0 q 363 31 308 186 q 252 341 235 403 q 218 465 208 526 l 201 526 q 200 465 189 264 q 177 63 177 0 l 48 0 q 48 15 84 293 q 119 572 119 636 l 308 636 q 308 581 368 395 q 428 208 428 156 l 435 156 q 435 208 503 395 q 571 582 571 636 l 759 636 q 759 535 781 275 q 804 16 804 0 z"},"g":{"x_min":0,"x_max":551,"ha":551,"o":"m 542 531 l 531 440 q 455 440 436 418 l 436 412 q 464 375 464 330 q 464 260 413 211 q 361 162 259 162 q 209 162 178 169 q 152 158 152 139 q 152 109 183 97 q 214 85 327 85 q 523 85 523 -48 q 523 -142 441 -197 q 360 -252 243 -252 q 15 -252 15 -109 q 15 -64 40 -33 q 66 -2 100 4 l 100 12 q 59 38 59 91 q 59 145 115 181 l 115 188 q 36 227 36 311 q 36 383 90 431 q 145 479 258 479 q 336 479 384 450 l 391 450 q 405 542 486 542 q 518 542 542 531 z m 402 -84 q 402 -48 375 -32 q 347 -16 280 -16 q 225 -16 169 -11 q 126 -37 126 -87 q 126 -181 251 -181 q 321 -181 362 -154 q 402 -128 402 -84 z m 345 317 q 345 361 316 384 q 288 407 251 407 q 215 407 187 385 q 160 363 160 320 q 160 276 188 254 q 216 231 254 231 q 290 231 317 253 q 345 275 345 317 z"},"j":{"x_min":0,"x_max":249,"ha":249,"o":"m 192 474 q 186 326 186 180 q 186 142 188 75 q 189 9 189 -14 q 189 -194 45 -223 l 10 -154 q 44 -126 57 -73 q 69 -19 69 155 q 69 352 52 460 z m 214 612 q 214 579 191 554 q 168 529 127 529 q 93 529 74 550 q 55 572 55 602 q 55 635 78 660 q 101 684 142 684 q 176 684 195 663 q 214 642 214 612 z"},"i":{"x_min":0,"x_max":249,"ha":249,"o":"m 193 0 l 62 0 q 68 101 68 232 q 68 362 52 459 l 192 474 q 186 379 186 232 q 186 106 193 0 z m 215 611 q 215 578 193 553 q 170 528 129 528 q 95 528 76 550 q 57 571 57 602 q 57 635 79 659 q 102 684 143 684 q 178 684 197 662 q 215 641 215 611 z"},"y":{"x_min":0,"x_max":489,"ha":489,"o":"m 473 464 q 473 432 403 263 q 323 68 305 -3 q 273 -125 219 -171 q 167 -216 64 -216 l 54 -122 q 115 -122 154 -88 q 193 -53 193 4 q 193 62 105 259 q 17 455 17 464 l 168 464 q 168 447 212 298 q 257 150 257 117 l 264 117 q 264 145 304 284 q 344 423 344 464 z"},"@":{"x_min":0,"x_max":1009,"ha":1009,"o":"m 946 296 q 946 168 883 77 q 819 -14 714 -14 q 650 -14 616 15 q 582 45 582 90 l 576 90 q 522 -14 429 -14 q 363 -14 328 41 q 292 96 292 178 q 292 291 353 376 q 414 462 521 462 q 581 462 608 426 l 615 426 l 623 449 l 719 459 q 683 237 683 178 q 683 124 697 98 q 712 72 749 72 q 787 72 814 133 q 840 193 840 276 q 840 426 755 527 q 670 627 506 627 q 355 627 266 511 q 176 395 176 232 q 176 78 262 -32 q 348 -143 506 -143 q 588 -143 658 -118 l 669 -213 q 600 -232 504 -232 q 294 -232 179 -94 q 64 45 64 237 q 64 437 183 578 q 302 720 504 720 q 713 720 830 597 q 946 474 946 296 z m 597 355 q 569 379 529 379 q 468 379 433 321 q 397 263 397 189 q 397 140 415 107 q 433 74 465 74 q 520 74 558 156 q 597 238 597 355 z"},".":{"x_min":0,"x_max":252,"ha":252,"o":"m 210 85 q 210 49 185 22 q 161 -5 117 -5 q 81 -5 60 19 q 40 42 40 75 q 40 110 64 136 q 89 163 133 163 q 170 163 190 140 q 210 117 210 85 z"},"p":{"x_min":0,"x_max":560,"ha":560,"o":"m 525 252 q 525 146 465 66 q 404 -14 299 -14 q 221 -14 192 19 l 186 19 q 186 -101 189 -223 l 57 -223 q 65 -83 65 100 q 65 336 40 460 l 165 474 l 172 432 l 180 432 q 232 480 322 480 q 416 480 471 413 q 525 345 525 252 z m 396 239 q 396 301 365 345 q 334 390 280 390 q 212 390 181 350 q 188 213 188 99 q 219 75 268 75 q 333 75 364 123 q 396 171 396 239 z"},"X":{"x_min":0,"x_max":587,"ha":587,"o":"m 582 0 l 418 0 q 418 17 363 125 q 309 231 285 264 l 277 264 q 256 235 207 128 q 156 20 156 0 l 5 0 q 5 15 100 165 q 195 314 222 341 l 222 348 q 196 378 118 497 q 38 620 38 636 l 195 636 q 195 620 241 531 q 286 441 305 419 l 312 419 q 331 442 374 531 q 417 620 417 636 l 562 636 q 562 622 478 500 q 394 378 371 355 l 371 348 q 403 313 492 166 q 582 18 582 0 z"},"*":{"x_min":0,"x_max":504,"ha":504,"o":"m 459 517 q 459 486 419 478 q 403 474 353 474 q 332 474 298 475 l 294 462 q 391 380 391 352 q 391 332 369 312 q 348 292 327 292 q 287 292 253 435 l 239 435 q 188 307 152 307 q 132 307 109 324 q 87 341 87 361 q 87 396 200 466 l 197 480 q 148 486 65 502 q 46 509 46 539 q 46 562 58 582 q 69 602 89 602 q 117 602 217 526 l 228 534 q 207 633 207 666 q 207 681 224 691 q 241 700 262 700 q 311 700 311 666 q 311 627 276 531 l 287 521 q 384 582 414 582 q 432 582 446 560 q 459 537 459 517 z"},"Y":{"x_min":0,"x_max":552,"ha":552,"o":"m 546 636 q 546 616 491 528 q 405 394 387 361 q 331 262 331 214 q 331 106 337 0 l 198 0 q 204 107 204 215 q 204 265 152 366 q 128 413 57 534 q 5 620 5 636 l 159 636 q 159 618 220 488 q 281 357 281 319 l 289 319 q 289 354 349 479 q 409 604 409 636 z"},"c":{"x_min":0,"x_max":445,"ha":445,"o":"m 424 103 l 416 9 q 371 -14 295 -14 q 169 -14 101 56 q 34 126 34 225 q 34 328 104 404 q 175 480 298 480 q 358 480 405 467 l 389 367 q 344 386 288 386 q 229 386 195 344 q 161 302 161 241 q 161 175 201 129 q 242 83 316 83 q 359 83 424 103 z"},"!":{"x_min":0,"x_max":252,"ha":252,"o":"m 208 563 q 208 468 151 262 l 102 262 q 60 475 60 561 q 60 653 138 653 q 208 653 208 563 z m 210 85 q 210 49 185 22 q 161 -5 117 -5 q 81 -5 60 19 q 40 42 40 75 q 40 110 64 136 q 89 163 133 163 q 170 163 190 140 q 210 117 210 85 z"},"/":{"x_min":0,"x_max":267,"ha":267,"o":"m 265 710 q 265 677 178 306 q 91 -65 91 -147 l 2 -147 q 2 -116 90 251 q 177 618 177 710 z"},"[":{"x_min":0,"x_max":353,"ha":353,"o":"m 292 -134 l 288 -237 l 58 -232 q 63 13 63 230 q 63 458 58 736 l 292 743 l 288 640 q 199 643 160 643 q 156 411 156 230 q 156 94 160 -143 q 196 -142 292 -134 z"},"6":{"x_min":0,"x_max":529,"ha":529,"o":"m 485 205 q 485 115 429 52 q 367 -20 265 -20 q 173 -20 113 40 q 44 110 44 243 q 44 639 402 656 l 411 577 q 189 553 165 348 l 173 348 q 213 398 298 398 q 387 398 438 338 q 485 285 485 205 z m 369 188 q 369 241 341 277 q 309 318 252 318 q 198 318 162 277 q 162 67 269 67 q 315 67 343 104 q 369 139 369 188 z"},"r":{"x_min":0,"x_max":385,"ha":385,"o":"m 376 464 l 348 350 q 312 364 275 364 q 203 364 180 300 q 180 105 183 0 l 53 0 q 62 147 62 240 q 62 356 37 460 l 162 474 q 170 420 170 411 l 178 411 q 223 480 297 480 q 333 480 376 464 z"},"2":{"x_min":0,"x_max":479,"ha":479,"o":"m 431 104 l 420 0 l 49 0 l 59 98 q 265 213 265 329 q 265 425 132 425 q 96 425 56 418 l 65 509 q 108 520 186 520 q 286 520 338 477 q 390 435 390 361 q 390 270 322 204 q 254 138 178 104 l 178 97 q 286 97 431 104 z"},"{":{"x_min":0,"x_max":353,"ha":353,"o":"m 338 -161 l 305 -239 q 94 -195 94 -83 q 94 -47 115 36 q 136 119 136 141 q 136 175 99 193 q 62 211 22 214 l 22 287 q 140 304 140 362 q 140 385 117 465 q 94 544 94 577 q 94 673 203 717 q 248 736 311 743 l 333 667 q 189 648 189 532 q 189 507 212 444 q 235 382 235 364 q 235 309 190 278 q 157 255 124 255 l 124 248 q 157 248 196 222 q 235 196 235 141 q 235 122 212 54 q 189 -13 189 -35 q 189 -126 338 -161 z"},"9":{"x_min":0,"x_max":528,"ha":528,"o":"m 484 242 q 484 39 391 -75 q 296 -190 118 -198 l 104 -118 q 229 -110 295 -27 q 351 43 360 155 l 355 155 q 311 104 229 104 q 142 104 90 164 q 44 219 44 300 q 44 388 98 450 q 159 520 262 520 q 353 520 414 454 q 484 379 484 242 z m 364 227 q 364 332 329 386 q 300 432 254 432 q 209 432 183 395 q 159 361 159 313 q 159 260 187 223 q 219 182 273 182 q 331 182 364 227 z"}," ":{"x_min":0,"x_max":217,"ha":217,"o":""},"I":{"x_min":0,"x_max":279,"ha":279,"o":"m 208 0 l 70 0 q 77 151 77 333 q 77 511 70 636 l 208 636 q 202 513 202 333 q 202 148 208 0 z"},"H":{"x_min":0,"x_max":653,"ha":653,"o":"m 583 0 l 445 0 q 450 162 450 280 l 204 280 q 204 174 208 0 l 70 0 q 77 161 77 333 q 77 506 70 636 l 208 636 q 203 499 203 382 l 451 382 q 451 485 445 636 l 583 636 q 576 512 576 333 q 576 146 583 0 z"},"4":{"x_min":0,"x_max":537,"ha":537,"o":"m 493 169 l 482 63 l 405 63 q 405 -28 411 -161 l 282 -161 q 286 -38 286 63 l 35 63 l 24 155 q 24 164 150 333 q 276 503 277 515 l 411 515 q 404 351 404 165 q 448 165 493 169 z m 298 409 l 291 409 q 291 399 207 286 q 124 172 124 166 l 124 159 q 186 159 290 162 q 293 298 298 409 z"},"~":{"x_min":0,"x_max":504,"ha":504,"o":"m 502 298 q 430 169 338 169 q 305 169 256 186 q 207 202 175 202 q 118 202 63 140 l 3 184 q 75 318 167 318 q 200 318 252 303 q 305 287 336 287 q 394 287 442 342 z"},"D":{"x_min":0,"x_max":645,"ha":645,"o":"m 607 340 q 607 201 519 98 q 430 -6 270 -6 q 197 -6 70 0 q 77 147 77 333 q 77 510 70 636 l 156 636 q 177 636 218 637 q 260 639 272 639 q 449 639 528 551 q 607 463 607 340 z m 474 319 q 474 413 419 477 q 365 541 252 541 q 231 541 195 537 q 200 439 200 333 q 200 216 205 101 q 236 95 268 95 q 373 95 424 160 q 474 225 474 319 z"},"^":{"x_min":0,"x_max":504,"ha":504,"o":"m 490 333 l 403 292 l 257 582 l 246 582 l 102 292 l 14 333 l 218 692 l 286 692 z"},"0":{"x_min":0,"x_max":534,"ha":534,"o":"m 490 258 q 490 119 432 50 q 373 -20 262 -20 q 154 -20 99 41 q 44 102 44 234 q 44 371 103 448 q 163 526 274 526 q 381 526 436 457 q 490 388 490 258 z m 370 228 q 370 317 345 375 q 320 432 263 432 q 166 432 166 267 q 166 169 191 122 q 216 75 272 75 q 370 75 370 228 z"},"F":{"x_min":0,"x_max":491,"ha":491,"o":"m 475 636 l 470 529 q 318 537 194 537 q 201 453 201 352 q 295 352 415 356 l 415 255 q 293 260 201 260 q 201 122 205 0 l 70 0 q 77 147 77 333 q 77 510 70 636 z"},"`":{"x_min":0,"x_max":274,"ha":274,"o":"m 250 530 l 165 530 q 165 538 97 610 q 30 683 30 688 l 162 688 q 162 683 206 611 q 250 538 250 530 z"},"k":{"x_min":0,"x_max":510,"ha":510,"o":"m 502 0 l 353 0 q 353 18 279 122 q 205 227 184 227 l 178 227 q 178 126 184 0 l 54 0 q 60 228 60 363 q 60 549 45 687 l 184 694 q 177 509 177 363 q 177 344 177 291 l 184 291 q 198 291 262 369 q 326 448 326 464 l 471 464 q 471 449 405 379 q 338 310 297 284 l 297 276 q 343 245 423 132 q 502 20 502 0 z"},"u":{"x_min":0,"x_max":541,"ha":541,"o":"m 491 0 l 376 -3 q 369 23 369 39 l 361 39 q 297 -14 211 -14 q 131 -14 90 28 q 49 70 49 197 q 49 212 50 239 q 51 267 51 287 q 51 341 42 460 l 178 465 q 170 371 170 287 q 170 167 188 126 q 206 84 258 84 q 315 84 356 112 q 356 369 351 460 l 482 465 q 478 373 478 226 q 478 117 491 0 z"},"]":{"x_min":0,"x_max":353,"ha":353,"o":"m 293 -230 l 58 -237 l 63 -134 q 151 -137 190 -137 q 195 95 195 276 q 195 412 190 648 q 154 647 58 640 l 63 743 l 293 738 q 287 493 287 276 q 287 48 293 -230 z"},"U":{"x_min":0,"x_max":658,"ha":658,"o":"m 598 636 q 594 472 594 308 q 594 -17 328 -17 q 197 -17 130 55 q 64 127 64 313 q 64 477 60 636 l 198 636 q 191 471 191 317 q 191 183 226 133 q 260 83 331 83 q 406 83 439 133 q 472 183 472 318 q 472 467 466 636 z"},"o":{"x_min":0,"x_max":559,"ha":559,"o":"m 525 243 q 525 120 449 50 q 374 -19 271 -19 q 173 -19 104 44 q 34 107 34 222 q 34 346 110 416 q 186 485 289 485 q 386 485 455 422 q 525 358 525 243 z m 397 228 q 397 299 364 347 q 331 395 278 395 q 226 395 194 350 q 161 305 161 238 q 161 167 194 119 q 228 71 281 71 q 333 71 365 116 q 397 161 397 228 z"},"N":{"x_min":0,"x_max":665,"ha":665,"o":"m 594 0 l 474 0 q 474 20 339 211 q 199 413 179 487 l 171 487 q 184 380 184 294 q 184 173 190 0 l 70 0 q 78 151 78 333 q 78 511 70 636 l 215 636 q 215 610 336 429 q 464 237 483 169 l 491 169 q 479 278 479 364 q 479 497 472 636 l 594 636 q 587 515 587 333 q 587 149 594 0 z"},"+":{"x_min":0,"x_max":504,"ha":504,"o":"m 452 200 l 296 200 l 296 34 l 208 34 l 208 200 l 52 200 l 52 288 l 208 288 l 208 454 l 296 454 l 296 288 l 452 288 z"},"G":{"x_min":0,"x_max":622,"ha":622,"o":"m 573 17 q 457 -13 379 -13 q 211 -13 124 79 q 38 171 38 302 q 38 440 132 542 q 227 645 394 645 q 473 645 533 630 l 517 515 q 440 535 379 535 q 276 535 225 472 q 174 409 174 317 q 174 224 231 155 q 288 85 388 85 q 416 85 453 91 q 445 146 445 198 q 445 250 435 316 l 573 316 q 569 241 569 165 q 569 110 573 17 z"},"q":{"x_min":0,"x_max":555,"ha":555,"o":"m 504 -222 l 375 -222 q 380 -88 380 32 l 372 32 q 322 -14 238 -14 q 144 -14 89 54 q 34 122 34 215 q 34 322 95 401 q 156 480 261 480 q 338 480 378 452 l 385 452 l 402 464 l 504 472 q 498 318 498 140 q 498 -65 504 -222 z m 380 117 q 380 277 375 369 q 338 393 291 393 q 227 393 196 345 q 164 297 164 228 q 164 166 194 121 q 225 77 278 77 q 350 77 380 117 z"},"d":{"x_min":0,"x_max":550,"ha":550,"o":"m 501 0 l 386 -3 q 382 14 382 32 l 375 32 q 321 -14 238 -14 q 144 -14 89 54 q 34 122 34 215 q 34 322 94 401 q 154 480 261 480 q 330 480 365 455 l 372 455 q 372 570 360 687 l 499 690 q 491 577 491 363 q 491 147 501 0 z m 379 111 q 379 267 372 369 q 338 393 291 393 q 227 393 195 345 q 164 297 164 228 q 164 166 194 121 q 225 77 278 77 q 350 77 379 111 z"},"1":{"x_min":0,"x_max":334,"ha":334,"o":"m 256 0 l 126 0 q 131 126 131 203 q 131 282 128 371 l 50 337 l 24 384 l 196 516 l 256 516 q 251 314 251 203 q 251 128 256 0 z"},"5":{"x_min":0,"x_max":473,"ha":473,"o":"m 429 85 q 429 -16 335 -89 q 232 -170 59 -179 l 45 -99 q 165 -89 231 -46 q 298 -3 298 63 q 298 134 239 165 q 180 196 44 196 q 73 424 73 515 l 390 515 l 386 409 q 292 419 155 419 q 145 349 145 284 q 429 284 429 85 z"}}}
